<svg width="300" height="450" viewBox="0 0 300 450" xmlns="http://www.w3.org/2000/svg">
  <!-- Definitions for gradients and shadows -->
  <defs>
    <!-- Skin gradient: warmer tones for sexy glow -->
    <linearGradient id="skinGradient" x1="0%" y1="0%" x2="100%" y2="100%">
      <stop offset="0%" style="stop-color:#ffdab9;stop-opacity:1" />
      <stop offset="100%" style="stop-color:#ffbb99;stop-opacity:1" />
    </linearGradient>
    <!-- Hair gradient: vibrant pink with highlights -->
    <linearGradient id="hairGradient" x1="0%" y1="0%" x2="0%" y2="100%">
      <stop offset="0%" style="stop-color:#ff69b4;stop-opacity:1" />
      <stop offset="50%" style="stop-color:#ff1493;stop-opacity:1" />
      <stop offset="100%" style="stop-color:#c71585;stop-opacity:1" />
    </linearGradient>
    <!-- Dress gradient: sleek blue with sheen -->
    <linearGradient id="dressGradient" x1="0%" y1="0%" x2="100%" y2="100%">
      <stop offset="0%" style="stop-color:#add8e6;stop-opacity:1" />
      <stop offset="100%" style="stop-color:#4169e1;stop-opacity:1" />
    </linearGradient>
    <!-- Eye shine: radial for sparkle -->
    <radialGradient id="eyeShineGradient" cx="30%" cy="30%" r="50%">
      <stop offset="0%" style="stop-color:white;stop-opacity:0.9" />
      <stop offset="100%" style="stop-color:transparent;stop-opacity:0" />
    </radialGradient>
    <!-- Shadow gradient: subtle for depth -->
    <linearGradient id="shadowGradient" x1="0%" y1="0%" x2="100%" y2="100%">
      <stop offset="0%" style="stop-color:#000;stop-opacity:0.1" />
      <stop offset="100%" style="stop-color:#000;stop-opacity:0.3" />
    </linearGradient>
    <!-- Blush gradient: soft pink cheeks -->
    <radialGradient id="blushGradient" cx="50%" cy="50%" r="50%">
      <stop offset="0%" style="stop-color:#ffb6c1;stop-opacity:0.5" />
      <stop offset="100%" style="stop-color:transparent;stop-opacity:0" />
    </radialGradient>
  </defs>

  <!-- Background: soft gradient for appeal -->
  <rect width="300" height="450" fill="url(#shadowGradient)" />

  <!-- Body group: enhanced curves for sexy/busty look -->
  <g id="body" transform="translate(0, 160)">
    <!-- Torso: exaggerated bust with low-cut dress -->
    <path d="M100 40 C80 100 120 150 150 140 C180 150 220 100 200 40 C180 0 150 20 120 0 Z" fill="url(#skinGradient)" stroke="#333" stroke-width="2" /> <!-- Bust skin -->
    <path d="M100 40 C110 120 150 160 200 120 C190 80 150 100 110 80 Z" fill="url(#dressGradient)" stroke="#333" stroke-width="2" opacity="0.9" /> <!-- Dress overlay -->
    <!-- Neck shadow -->
    <path d="M140 0 Q150 20 160 0" fill="url(#shadowGradient)" />
    <!-- Arms: slender and posed for sexiness -->
    <path d="M100 50 C80 100 90 150 110 180" fill="none" stroke="url(#skinGradient)" stroke-width="12" stroke-linecap="round" />
    <path d="M200 50 C220 100 210 150 190 180" fill="none" stroke="url(#skinGradient)" stroke-width="12" stroke-linecap="round" />
  </g>

  <!-- Head group: refined for cuteness -->
  <g id="head" transform="translate(0, 20)">
    <!-- Hair: back layer, voluminous and flowing -->
    <path d="M80 40 C50 150 80 280 150 300 C220 280 250 150 220 40 C150 -20 80 40 Z" fill="url(#hairGradient)" />
    <!-- Face: smoother oval -->
    <ellipse cx="150" cy="100" rx="55" ry="65" fill="url(#skinGradient)" stroke="#333" stroke-width="2" />
    <!-- Blush: for cute/sexy flush -->
    <circle cx="120" cy="110" r="15" fill="url(#blushGradient)" />
    <circle cx="180" cy="110" r="15" fill="url(#blushGradient)" />
    <!-- Eyes: larger, with lashes and shine -->
    <g id="eyes">
      <path d="M115 80 Q130 70 145 80" fill="none" stroke="#333" stroke-width="2" /> <!-- Left lash -->
      <ellipse cx="130" cy="90" rx="18" ry="22" fill="white" stroke="#333" stroke-width="1" />
      <circle cx="130" cy="90" r="10" fill="#4b0082" />
      <circle cx="122" cy="82" r="6" fill="url(#eyeShineGradient)" />
      <path d="M155 80 Q170 70 185 80" fill="none" stroke="#333" stroke-width="2" /> <!-- Right lash -->
      <ellipse cx="170" cy="90" rx="18" ry="22" fill="white" stroke="#333" stroke-width="1" />
      <circle cx="170" cy="90" r="10" fill="#4b0082" />
      <circle cx="162" cy="82" r="6" fill="url(#eyeShineGradient)" />
    </g>
    <!-- Nose: subtle -->
    <path d="M150 110 L152 115" stroke="#333" stroke-width="1" />
    <!-- Mouth: coy smile for sexiness -->
    <path d="M135 125 Q150 140 165 125" fill="none" stroke="#ff4040" stroke-width="2" stroke-linecap="round" />
    <!-- Hair bangs: front layer with waves -->
    <path d="M100 20 C110 80 150 110 200 80 C190 30 150 40 110 30 Z" fill="url(#hairGradient)" />
    <!-- Earrings: simple hoops for style -->
    <circle cx="100" cy="120" r="5" fill="gold" stroke="#333" stroke-width="1" />
    <circle cx="200" cy="120" r="5" fill="gold" stroke="#333" stroke-width="1" />
  </g>
</svg>